<svg width="167" height="31" viewBox="0 0 167 31" fill="none" xmlns="http://www.w3.org/2000/svg">
<path d="M0.0205967 30V25.6818L9.56605 14.2614V14.1477H0.361506V8.18182H18.8274V12.9545L10.1342 23.9205V24.0341H19.1683V30H0.0205967ZM33.3338 30.3977C31.0043 30.3977 28.9967 29.9527 27.3111 29.0625C25.6349 28.1629 24.3423 26.875 23.4332 25.1989C22.5336 23.5133 22.0838 21.4962 22.0838 19.1477C22.0838 16.8939 22.5384 14.9242 23.4474 13.2386C24.3565 11.553 25.6397 10.2415 27.2969 9.30398C28.9541 8.36648 30.9096 7.89773 33.1634 7.89773C34.8111 7.89773 36.3026 8.15341 37.6378 8.66477C38.973 9.17614 40.1141 9.91951 41.0611 10.8949C42.008 11.8608 42.7372 13.035 43.2486 14.4176C43.7599 15.8002 44.0156 17.358 44.0156 19.0909V20.9091H24.527V16.5909H36.7997C36.7902 15.9659 36.6293 15.4167 36.3168 14.9432C36.0137 14.4602 35.6018 14.0862 35.081 13.821C34.5696 13.5464 33.9872 13.4091 33.3338 13.4091C32.6993 13.4091 32.117 13.5464 31.5866 13.821C31.0563 14.0862 30.6302 14.4555 30.3082 14.929C29.9957 15.4025 29.83 15.9564 29.8111 16.5909V21.25C29.8111 21.9508 29.9579 22.5758 30.2514 23.125C30.545 23.6742 30.9664 24.1051 31.5156 24.4176C32.0649 24.7301 32.7277 24.8864 33.5043 24.8864C34.044 24.8864 34.5365 24.8106 34.9815 24.6591C35.4361 24.5076 35.8243 24.2898 36.1463 24.0057C36.4683 23.7121 36.705 23.3617 36.8565 22.9545H44.0156C43.7694 24.4697 43.187 25.786 42.2685 26.9034C41.3499 28.0114 40.133 28.8731 38.6179 29.4886C37.1122 30.0947 35.3509 30.3977 33.3338 30.3977ZM55.0561 17.7273V30H47.2152V8.18182H54.6584V12.3295H54.8857C55.3591 10.947 56.1925 9.86269 57.3857 9.0767C58.5883 8.29072 59.9898 7.89773 61.5902 7.89773C63.1338 7.89773 64.4737 8.25284 65.6101 8.96307C66.7559 9.66383 67.6413 10.6297 68.2663 11.8608C68.9008 13.0919 69.2133 14.4981 69.2038 16.0795V30H61.3629V17.7273C61.3724 16.6477 61.0978 15.8002 60.5391 15.1847C59.9898 14.5691 59.2228 14.2614 58.2379 14.2614C57.594 14.2614 57.0305 14.4034 56.5476 14.6875C56.0741 14.9621 55.7095 15.3598 55.4538 15.8807C55.1982 16.392 55.0656 17.0076 55.0561 17.7273ZM70.3295 7.27273V0.90909H95.6136V7.27273H86.8636V30H79.0795V7.27273H70.3295ZM105.99 30.3977C103.661 30.3977 101.653 29.9527 99.9673 29.0625C98.2912 28.1629 96.9986 26.875 96.0895 25.1989C95.1899 23.5133 94.7401 21.4962 94.7401 19.1477C94.7401 16.8939 95.1946 14.9242 96.1037 13.2386C97.0128 11.553 98.2959 10.2415 99.9531 9.30398C101.61 8.36648 103.566 7.89773 105.82 7.89773C107.467 7.89773 108.959 8.15341 110.294 8.66477C111.629 9.17614 112.77 9.91951 113.717 10.8949C114.664 11.8608 115.393 13.035 115.905 14.4176C116.416 15.8002 116.672 17.358 116.672 19.0909V20.9091H97.1832V16.5909H109.456C109.446 15.9659 109.286 15.4167 108.973 14.9432C108.67 14.4602 108.258 14.0862 107.737 13.821C107.226 13.5464 106.643 13.4091 105.99 13.4091C105.356 13.4091 104.773 13.5464 104.243 13.821C103.713 14.0862 103.286 14.4555 102.964 14.929C102.652 15.4025 102.486 15.9564 102.467 16.5909V21.25C102.467 21.9508 102.614 22.5758 102.908 23.125C103.201 23.6742 103.623 24.1051 104.172 24.4176C104.721 24.7301 105.384 24.8864 106.161 24.8864C106.7 24.8864 107.193 24.8106 107.638 24.6591C108.092 24.5076 108.481 24.2898 108.803 24.0057C109.125 23.7121 109.361 23.3617 109.513 22.9545H116.672C116.426 24.4697 115.843 25.786 114.925 26.9034C114.006 28.0114 112.789 28.8731 111.274 29.4886C109.768 30.0947 108.007 30.3977 105.99 30.3977ZM130.383 30.3977C128.015 30.3977 125.989 29.929 124.303 28.9915C122.618 28.0445 121.325 26.7282 120.425 25.0426C119.526 23.3475 119.076 21.3826 119.076 19.1477C119.076 16.9129 119.526 14.9527 120.425 13.267C121.325 11.572 122.618 10.2557 124.303 9.31818C125.989 8.37121 128.015 7.89773 130.383 7.89773C132.523 7.89773 134.374 8.28598 135.937 9.0625C137.509 9.82955 138.726 10.9186 139.587 12.3295C140.449 13.7311 140.885 15.3788 140.894 17.2727H133.621C133.517 16.1269 133.186 15.2557 132.627 14.6591C132.078 14.053 131.368 13.75 130.496 13.75C129.815 13.75 129.218 13.9489 128.707 14.3466C128.195 14.7348 127.798 15.3267 127.513 16.1222C127.229 16.9081 127.087 17.8977 127.087 19.0909C127.087 20.2841 127.229 21.2784 127.513 22.0739C127.798 22.8598 128.195 23.4517 128.707 23.8494C129.218 24.2377 129.815 24.4318 130.496 24.4318C131.074 24.4318 131.585 24.2992 132.031 24.0341C132.476 23.7595 132.835 23.3617 133.11 22.8409C133.394 22.3106 133.565 21.6667 133.621 20.9091H140.894C140.866 22.8314 140.425 24.5076 139.573 25.9375C138.721 27.358 137.513 28.4564 135.951 29.233C134.398 30.0095 132.542 30.3977 130.383 30.3977ZM151.97 17.7273V30H144.129V0.90909H151.686V12.3295H151.913C152.406 10.9375 153.225 9.85322 154.371 9.0767C155.517 8.29072 156.894 7.89773 158.504 7.89773C160.048 7.89773 161.388 8.24811 162.524 8.94886C163.67 9.64962 164.555 10.6155 165.18 11.8466C165.815 13.0777 166.127 14.4886 166.118 16.0795V30H158.277V17.7273C158.286 16.6477 158.017 15.8002 157.467 15.1847C156.928 14.5691 156.156 14.2614 155.152 14.2614C154.518 14.2614 153.959 14.4034 153.476 14.6875C153.002 14.9621 152.633 15.3598 152.368 15.8807C152.112 16.392 151.98 17.0076 151.97 17.7273Z" fill="url(#paint0_linear_0_662)"/>
<defs>
<linearGradient id="paint0_linear_0_662" x1="76.5" y1="-9" x2="76.5" y2="34" gradientUnits="userSpaceOnUse">
<stop stop-color="#004AFB"/>
<stop offset="1" stop-color="#946DF0"/>
</linearGradient>
</defs>
</svg>
